<?xml version="1.0" encoding="UTF-8" standalone="no"?>
<!-- Created with Inkscape (http://www.inkscape.org/) -->

<svg
   xmlns:dc="http://purl.org/dc/elements/1.1/"
   xmlns:cc="http://creativecommons.org/ns#"
   xmlns:rdf="http://www.w3.org/1999/02/22-rdf-syntax-ns#"
   xmlns:svg="http://www.w3.org/2000/svg"
   xmlns="http://www.w3.org/2000/svg"
   version="1.1"
   width="97.818382"
   height="20"
   id="svg2">
  <defs
     id="defs4" />
  <metadata
     id="metadata7">
    <rdf:RDF>
      <cc:Work
         rdf:about="">
        <dc:format>image/svg+xml</dc:format>
        <dc:type
           rdf:resource="http://purl.org/dc/dcmitype/StillImage" />
        <dc:title></dc:title>
      </cc:Work>
    </rdf:RDF>
  </metadata>
  <path
     d="m 9.1275165,20 c 2.3087195,0 4.1879215,-0.77853 5.4496645,-2.73826 l 0.05368,0 0.268466,2.30873 3.328862,0 0,-10.308725 -8.000007,0 0,3.489933 3.59732,0 0,0.05369 c -0.187918,1.691274 -1.66444,3.355702 -4.1610785,3.355702 -3.0067075,0 -4.8322142,-2.604027 -4.8322142,-6.120802 0,-3.48993 1.5838953,-6.120805 4.7516784,-6.120805 2.0939663,0 3.3825513,1.181208 3.7315453,2.738253 l 4.617448,0 C 17.315445,2.630877 14.36242,0 9.4228191,0 6.657721,0 4.4295274,0.939599 2.8456377,2.550335 1.0201348,4.375836 0,7.033559 0,10.040269 0,12.966441 0.91275241,15.48993 2.5771798,17.31544 4.1610713,19.03355 6.3892631,20 9.1275165,20"
     id="path3839"
     style="font-size:140.5151825px;font-style:normal;font-variant:normal;font-weight:bold;font-stretch:normal;text-align:start;line-height:125%;letter-spacing:0px;word-spacing:0px;writing-mode:lr-tb;text-anchor:start;fill:#00ffff;fill-opacity:1;stroke:none;font-family:Neue Haas Grotesk Display Pro;-inkscape-font-specification:Neue Haas Grotesk Display Pro Bold" />
  <path
     d="m 19.176593,19.57047 4.778523,0 1.100667,-3.46309 6.71141,0 1.127529,3.46309 4.993284,0 -6.926172,-19.194632 -4.885913,0 -6.899328,19.194632 M 26.15645,12.697986 27.632972,8.05369 c 0.322151,-0.993286 0.778516,-2.711408 0.778516,-2.711408 l 0.0537,0 c 0,0 0.429522,1.718122 0.751674,2.711408 l 1.44966,4.644296 -4.510076,0"
     id="path3841"
     style="font-size:140.5151825px;font-style:normal;font-variant:normal;font-weight:bold;font-stretch:normal;text-align:start;line-height:125%;letter-spacing:0px;word-spacing:0px;writing-mode:lr-tb;text-anchor:start;fill:#ffffff;fill-opacity:1;stroke:none;font-family:Neue Haas Grotesk Display Pro;-inkscape-font-specification:Neue Haas Grotesk Display Pro Bold" />
  <path
     d="m 39.237422,19.57047 4.75168,0 0,-7.194631 2.872479,0 c 2.040258,0 2.953006,0.966444 3.194629,2.738256 0.295289,1.906035 0.214761,4.161075 0.724831,4.456375 l 4.617447,0 0,-0.24161 c -0.671145,-0.24161 -0.402679,-2.65772 -0.805378,-5.181209 -0.268446,-1.906039 -1.127509,-2.95302 -2.791931,-3.516779 l 0,-0.08054 c 2.228177,-0.778523 3.328863,-2.41611 3.328863,-4.644296 0,-3.570466 -2.899341,-5.530202 -6.711411,-5.530202 l -9.181209,0 0,19.194636 m 4.75168,-10.711414 0,-4.724831 3.677837,0 c 1.825516,0 2.738265,0.99329 2.738265,2.389261 0,1.449663 -0.966453,2.33557 -2.845636,2.33557 l -3.570466,0"
     id="path3843"
     style="font-size:140.5151825px;font-style:normal;font-variant:normal;font-weight:bold;font-stretch:normal;text-align:start;line-height:125%;letter-spacing:0px;word-spacing:0px;writing-mode:lr-tb;text-anchor:start;fill:#ffffff;fill-opacity:1;stroke:none;font-family:Neue Haas Grotesk Display Pro;-inkscape-font-specification:Neue Haas Grotesk Display Pro Bold" />
  <path
     d="m 57.274327,19.57047 4.751681,0 0,-7.194631 2.872478,0 c 2.040278,0 2.953026,0.966444 3.19463,2.738256 0.295308,1.906035 0.21478,4.161075 0.724849,4.456375 l 4.617448,0 0,-0.24161 c -0.671145,-0.24161 -0.402699,-2.65772 -0.805378,-5.181209 -0.268446,-1.906039 -1.127509,-2.95302 -2.79195,-3.516779 l 0,-0.08054 c 2.228195,-0.778523 3.328862,-2.41611 3.328862,-4.644296 0,-3.570466 -2.899321,-5.530202 -6.71141,-5.530202 l -9.18121,0 0,19.194636 m 4.751681,-10.711414 0,-4.724831 3.677856,0 c 1.825497,0 2.738246,0.99329 2.738246,2.389261 0,1.449663 -0.966434,2.33557 -2.845636,2.33557 l -3.570466,0"
     id="path3845"
     style="font-size:140.5151825px;font-style:normal;font-variant:normal;font-weight:bold;font-stretch:normal;text-align:start;line-height:125%;letter-spacing:0px;word-spacing:0px;writing-mode:lr-tb;text-anchor:start;fill:#ffffff;fill-opacity:1;stroke:none;font-family:Neue Haas Grotesk Display Pro;-inkscape-font-specification:Neue Haas Grotesk Display Pro Bold" />
  <path
     d="m 75.338095,19.57047 4.75168,0 0,-19.194632 -4.75168,0 0,19.194632"
     id="path3847"
     style="font-size:140.5151825px;font-style:normal;font-variant:normal;font-weight:bold;font-stretch:normal;text-align:start;line-height:125%;letter-spacing:0px;word-spacing:0px;writing-mode:lr-tb;text-anchor:start;fill:#ffffff;fill-opacity:1;stroke:none;font-family:Neue Haas Grotesk Display Pro;-inkscape-font-specification:Neue Haas Grotesk Display Pro Bold" />
  <path
     d="m 87.429114,19.57047 4.751681,0 0,-15.167785 5.637586,0 0,-4.026847 -15.973167,0 0,4.026847 5.5839,0 0,15.167785"
     id="path3849"
     style="font-size:140.5151825px;font-style:normal;font-variant:normal;font-weight:bold;font-stretch:normal;text-align:start;line-height:125%;letter-spacing:0px;word-spacing:0px;writing-mode:lr-tb;text-anchor:start;fill:#ffffff;fill-opacity:1;stroke:none;font-family:Neue Haas Grotesk Display Pro;-inkscape-font-specification:Neue Haas Grotesk Display Pro Bold" />
</svg>
